<?xml version="1.0" standalone="no"?>
<!DOCTYPE svg PUBLIC "-//W3C//DTD SVG 20010904//EN"
 "http://www.w3.org/TR/2001/REC-SVG-20010904/DTD/svg10.dtd">
<svg version="1.0" xmlns="http://www.w3.org/2000/svg"
 width="980.000000pt" height="980.000000pt" viewBox="0 0 980.000000 980.000000"
 preserveAspectRatio="xMidYMid meet">

<g transform="translate(0.000000,980.000000) scale(0.100000,-0.100000)"
fill="#000000" stroke="none">
<path d="M4435 8638 c-16 -6 -46 -22 -65 -36 -86 -64 -101 -105 -151 -430
l-43 -272 -41 -10 c-239 -60 -553 -187 -768 -312 -38 -22 -74 -37 -82 -35 -7
3 -106 73 -219 156 -261 191 -270 196 -366 196 -59 0 -85 -5 -120 -24 -29 -15
-149 -127 -337 -315 -307 -306 -326 -330 -339 -429 -12 -87 12 -136 191 -382
91 -126 165 -232 165 -237 0 -6 -25 -55 -56 -109 -89 -157 -169 -340 -228
-524 -31 -93 -60 -188 -66 -210 l-9 -40 -278 -43 c-153 -24 -296 -52 -319 -62
-53 -23 -111 -81 -138 -139 -20 -45 -21 -59 -21 -481 l0 -435 28 -57 c29 -59
80 -108 139 -132 18 -8 158 -33 311 -57 l278 -44 9 -40 c6 -22 34 -114 64
-205 61 -186 137 -362 226 -521 33 -59 60 -112 60 -116 0 -5 -70 -106 -156
-224 -86 -117 -166 -234 -177 -259 -15 -31 -21 -66 -22 -110 0 -115 16 -137
344 -461 300 -297 330 -321 423 -334 80 -12 141 14 290 122 73 53 178 129 233
169 l100 72 40 -24 c80 -50 333 -173 445 -217 63 -25 177 -63 254 -85 76 -23
139 -42 141 -44 1 -2 21 -124 44 -271 24 -148 48 -283 54 -300 26 -78 96 -147
171 -168 48 -14 874 -12 916 2 79 27 147 96 170 174 6 22 30 159 53 304 l42
264 75 19 c210 54 520 179 707 287 l102 58 230 -168 c127 -92 248 -173 269
-180 20 -7 64 -13 97 -13 108 0 127 14 447 331 330 328 343 347 343 468 -1 89
-7 100 -199 364 -81 111 -149 208 -152 216 -3 8 20 59 51 115 88 155 168 339
229 525 31 94 61 188 66 210 l9 40 278 43 c309 48 359 64 413 132 67 84 65 70
65 550 l0 435 -28 57 c-31 64 -81 111 -142 133 -37 13 -174 37 -473 82 l-112
17 -11 41 c-63 247 -187 555 -304 756 -25 42 -45 81 -45 86 0 11 39 65 232
328 133 181 153 258 98 381 -28 64 -566 608 -641 649 -65 35 -142 43 -209 21
-43 -14 -212 -129 -478 -326 -33 -25 -33 -25 -65 -6 -92 54 -305 160 -402 199
-101 42 -313 112 -410 136 l-41 11 -43 272 c-45 291 -62 347 -119 404 -70 70
-58 69 -552 71 -294 1 -455 -2 -475 -9z m863 -231 c6 -7 34 -153 61 -324 27
-171 56 -324 64 -340 19 -36 42 -46 159 -74 265 -62 555 -185 833 -353 41 -24
72 -36 98 -36 44 0 71 17 381 244 109 80 203 146 209 146 5 0 133 -123 283
-274 181 -181 274 -281 274 -295 0 -11 -85 -138 -190 -282 -104 -143 -191
-270 -191 -282 -3 -47 4 -65 57 -154 155 -263 259 -510 325 -778 35 -141 44
-162 81 -181 15 -8 168 -37 339 -64 171 -27 317 -54 325 -61 20 -17 21 -781 0
-798 -7 -6 -153 -33 -325 -61 -171 -27 -324 -56 -339 -64 -36 -19 -46 -40 -77
-166 -71 -285 -178 -541 -330 -791 -80 -131 -79 -141 28 -289 46 -63 131 -182
190 -263 59 -82 107 -157 107 -167 0 -23 -537 -560 -560 -560 -10 0 -127 80
-261 177 -134 98 -260 185 -279 195 -47 25 -73 17 -184 -50 -209 -127 -499
-251 -731 -311 -66 -17 -137 -36 -157 -41 -66 -18 -72 -35 -128 -386 -29 -175
-57 -325 -62 -331 -15 -19 -781 -19 -796 -1 -6 7 -33 157 -62 332 -28 176 -56
328 -61 338 -16 30 -49 45 -143 68 -275 64 -561 182 -806 330 -91 56 -117 65
-167 62 -12 -1 -139 -88 -283 -193 -160 -115 -269 -189 -281 -187 -28 5 -559
534 -559 558 0 10 71 117 158 237 87 120 172 239 190 265 46 67 44 109 -10
195 -150 243 -260 499 -328 761 -44 169 -57 200 -91 217 -15 8 -169 38 -340
65 -172 28 -318 55 -326 61 -10 9 -13 88 -13 398 0 212 4 391 8 397 4 7 150
35 325 63 176 28 331 58 347 66 32 16 51 60 76 170 54 242 186 552 348 819 64
106 66 102 -154 406 -105 144 -190 271 -190 281 0 21 536 569 556 569 6 0 132
-88 280 -195 240 -174 273 -195 308 -195 31 0 68 17 175 80 230 135 474 235
731 301 63 16 128 34 143 41 51 20 55 34 132 527 14 90 30 170 36 178 17 19
781 19 797 0z"/>
<path d="M4730 6973 c-103 -8 -294 -45 -407 -77 -228 -66 -434 -167 -645 -316
-108 -76 -303 -261 -390 -369 -419 -520 -567 -1203 -398 -1837 97 -366 269
-665 538 -938 374 -379 854 -590 1392 -613 980 -40 1854 616 2095 1574 153
608 25 1241 -354 1751 -88 118 -305 334 -421 419 -411 302 -913 446 -1410 406z
m282 -233 c256 -19 457 -70 674 -175 218 -104 377 -218 539 -386 231 -240 382
-510 464 -832 90 -352 66 -761 -65 -1101 -50 -129 -145 -307 -222 -416 -77
-110 -295 -333 -397 -408 -101 -75 -261 -167 -365 -213 -50 -21 -93 -39 -96
-39 -3 0 -4 107 -2 238 4 223 6 241 30 307 50 140 102 221 233 365 104 114
161 198 220 322 81 172 115 329 115 536 0 319 -117 614 -335 840 -133 139
-306 262 -369 262 -37 0 -90 -30 -106 -60 -8 -14 -11 -163 -11 -485 l0 -464
-202 -153 c-111 -84 -209 -152 -217 -152 -26 0 -417 301 -417 321 0 10 0 222
-1 470 l-2 453 -29 32 c-26 29 -36 33 -78 33 -38 0 -61 -8 -106 -35 -380 -230
-607 -626 -607 -1060 0 -217 34 -368 124 -555 59 -122 115 -202 226 -325 100
-110 135 -159 182 -258 58 -121 68 -184 68 -424 0 -115 -2 -208 -4 -208 -12 0
-177 75 -234 107 -304 168 -570 432 -733 727 -297 538 -311 1178 -38 1721 92
180 181 305 324 454 313 325 732 524 1175 559 63 5 117 10 120 10 3 1 67 -3
142 -8z m-744 -1835 c8 -11 142 -117 300 -235 277 -209 287 -215 332 -215 46
0 56 6 333 215 200 150 291 225 302 247 13 26 15 91 15 409 l0 378 56 -54
c140 -138 239 -320 285 -526 8 -34 13 -118 13 -199 0 -113 -4 -157 -23 -229
-49 -189 -121 -319 -263 -473 -152 -166 -238 -314 -285 -491 -24 -90 -26 -117
-31 -364 l-4 -267 -97 -18 c-136 -26 -466 -26 -602 0 l-97 18 -5 267 c-4 245
-6 275 -29 362 -49 182 -130 322 -288 495 -143 156 -217 289 -262 472 -32 128
-31 343 1 466 51 197 126 331 265 475 l61 63 5 -388 c4 -300 8 -393 18 -408z"/>
</g>
</svg>